<svg xmlns="http://www.w3.org/2000/svg" viewBox="0 0 434.85 483.05"><defs><style>.cls-1{fill:#096d38;}.cls-2{fill:#684912;}.cls-3{fill:#0fb70f;}</style></defs><g id="Capa_2" data-name="Capa 2"><g id="Capa_1-2" data-name="Capa 1"><path class="cls-1" d="M55.26,418.24q8.48,0,12.85,4.14t4.37,12.06a14.5,14.5,0,0,1-2,7.5,13.72,13.72,0,0,1-5.8,5.3,21.76,21.76,0,0,1-9.53,2l.19-3.41a29.24,29.24,0,0,1,6.58.83,21.15,21.15,0,0,1,6.67,2.86A16,16,0,0,1,73.77,455a16.76,16.76,0,0,1,2,8.6A21,21,0,0,1,74,473a15.19,15.19,0,0,1-4.88,5.85,19.9,19.9,0,0,1-6.67,3,30.69,30.69,0,0,1-7.14.87H31.69a4.6,4.6,0,0,1-3.31-1.33A4.48,4.48,0,0,1,27,478V422.93a4.48,4.48,0,0,1,1.38-3.36,4.6,4.6,0,0,1,3.31-1.33Zm-1.29,9H35.84l1.1-1.48v19.8l-1-1H54.16A9.06,9.06,0,0,0,60,442.31q2.53-2.16,2.54-6.4c0-2.88-.77-5.05-2.31-6.49A8.77,8.77,0,0,0,54,427.26Zm.65,26.33H36.3l.64-.65v21.73l-.73-.83h19a11.42,11.42,0,0,0,7.73-2.53q3-2.54,2.95-7.69,0-4.32-1.75-6.44a8.61,8.61,0,0,0-4.33-2.86A18.63,18.63,0,0,0,54.62,453.59Z"/><path class="cls-1" d="M103.78,482.68a6,6,0,0,1-3.87-1.33A4.15,4.15,0,0,1,98.26,478V422.93a4.48,4.48,0,0,1,1.38-3.36,4.58,4.58,0,0,1,3.31-1.33h26a17.6,17.6,0,0,1,9.12,2.44,18.6,18.6,0,0,1,6.67,6.72,18.85,18.85,0,0,1,2.53,9.8,17.36,17.36,0,0,1-1.47,7,20,20,0,0,1-4,5.94,16.44,16.44,0,0,1-5.61,3.87l-1-1.75a14.82,14.82,0,0,1,5,2.9,14.37,14.37,0,0,1,3.36,4.42,13.74,13.74,0,0,1,1.33,5.75c.19,1.9.36,3.49.51,4.74a13,13,0,0,0,.69,3.09A3.46,3.46,0,0,0,147.7,475a4.05,4.05,0,0,1,2.07,2.76,3.75,3.75,0,0,1-.79,3.32,3.69,3.69,0,0,1-2.07,1.42,5.68,5.68,0,0,1-2.53.09,7.88,7.88,0,0,1-2.21-.69,13.91,13.91,0,0,1-3-2.62,12.47,12.47,0,0,1-2.44-4.74,28.6,28.6,0,0,1-.92-8,9.72,9.72,0,0,0-.74-4,7.21,7.21,0,0,0-2-2.71,8.45,8.45,0,0,0-3-1.57,13.84,13.84,0,0,0-3.87-.51H106.64l1.28-1.84v22a5.07,5.07,0,0,1-1.1,3.36A3.73,3.73,0,0,1,103.78,482.68Zm3-32.87h22a7,7,0,0,0,4.1-1.7,11.67,11.67,0,0,0,3.22-4.37,15.08,15.08,0,0,0,1.24-6.26,10.81,10.81,0,0,0-2.62-7.41,8,8,0,0,0-6.22-3H106.91l1-2.39v27.07Z"/><path class="cls-1" d="M195,430.2,174.3,479.92a5,5,0,0,1-1.66,2.3,4,4,0,0,1-2.48.83,3.84,3.84,0,0,1-3-1.15A4.65,4.65,0,0,1,166,479a4.9,4.9,0,0,1,.27-1.48L189.68,421a5.25,5.25,0,0,1,1.88-2.4,4.33,4.33,0,0,1,2.72-.73,4.4,4.4,0,0,1,2.58.83,4.73,4.73,0,0,1,1.75,2.3l23.11,55.7a5,5,0,0,1,.36,1.84,4.26,4.26,0,0,1-1.33,3.27,4.32,4.32,0,0,1-3,1.24,4,4,0,0,1-2.53-.88,5.18,5.18,0,0,1-1.71-2.25l-20.9-49.44Zm-17,36.65,4.14-8.84h26.05l1.57,8.84Z"/><path class="cls-1" d="M290.49,418.24a3.88,3.88,0,0,1,3,1.24,4.36,4.36,0,0,1,1.15,3.08V478a4.55,4.55,0,0,1-4.7,4.69,5.87,5.87,0,0,1-2-.37,3.52,3.52,0,0,1-1.61-1l-37.84-49.07,2.11-1.2v47.42a4.19,4.19,0,0,1-1.19,3,4.41,4.41,0,0,1-6.13,0,4.29,4.29,0,0,1-1.15-3V422.93a4.45,4.45,0,0,1,1.38-3.41,4.75,4.75,0,0,1,3.32-1.28,6.31,6.31,0,0,1,2.16.41,3.35,3.35,0,0,1,1.71,1.24L287.63,468l-1.38,1.29V422.56a4.27,4.27,0,0,1,1.2-3.08A4,4,0,0,1,290.49,418.24Z"/><path class="cls-1" d="M347.84,418.24a26.61,26.61,0,0,1,11.88,2.53,24.16,24.16,0,0,1,8.61,7,31.58,31.58,0,0,1,5.2,10.31,43.24,43.24,0,0,1,1.75,12.39,41.05,41.05,0,0,1-3.13,16.25,27,27,0,0,1-9.21,11.64q-6.07,4.33-15.1,4.33H325.38a4.58,4.58,0,0,1-3.31-1.33,4.45,4.45,0,0,1-1.39-3.36V422.93a4.45,4.45,0,0,1,1.39-3.36,4.58,4.58,0,0,1,3.31-1.33Zm-.92,55.6q6.54,0,10.59-3.22a18.61,18.61,0,0,0,5.94-8.52,34.66,34.66,0,0,0,1.88-11.64,36.52,36.52,0,0,0-1.05-8.89,23,23,0,0,0-3.32-7.45,16.34,16.34,0,0,0-5.71-5.16,17.09,17.09,0,0,0-8.33-1.89h-17.4l.83-.83v48.52l-.55-.92Z"/><path class="cls-2" d="M82.23,185.77H68.42a5.53,5.53,0,0,1-5.18-4.32L33,4.32A3.46,3.46,0,0,1,36.48,0H47.92A5.52,5.52,0,0,1,53.1,4.32L74.46,140c.43,2.37,1.3,2.37,1.73,0L98,4.32A5.51,5.51,0,0,1,103.17,0h11.44a3.46,3.46,0,0,1,3.45,4.32L87.41,181.45A5.52,5.52,0,0,1,82.23,185.77Z"/><path class="cls-2" d="M212.91,185.77H135.69a4.33,4.33,0,0,1-4.32-4.32V66.23a4.33,4.33,0,0,1,4.32-4.31h58.19a4.33,4.33,0,0,1,4.32,4.31v11a4.33,4.33,0,0,1-4.32,4.32H155.33A4.33,4.33,0,0,0,151,85.87v29.32a4.33,4.33,0,0,0,4.32,4.32h33.09a4.33,4.33,0,0,1,4.32,4.31v11a4.33,4.33,0,0,1-4.32,4.32H155.33a4.33,4.33,0,0,0-4.32,4.31V164a4.33,4.33,0,0,0,4.32,4.31h57.58a4.33,4.33,0,0,1,4.32,4.32v8.85A4.33,4.33,0,0,1,212.91,185.77Z"/><path class="cls-2" d="M311.56,185.77H234.33a4.33,4.33,0,0,1-4.31-4.32V66.23a4.32,4.32,0,0,1,4.31-4.31h58.2a4.32,4.32,0,0,1,4.31,4.31v11a4.33,4.33,0,0,1-4.31,4.32H254a4.32,4.32,0,0,0-4.31,4.31v29.32a4.33,4.33,0,0,0,4.31,4.32h33.1a4.33,4.33,0,0,1,4.32,4.31v11a4.33,4.33,0,0,1-4.32,4.32H254a4.32,4.32,0,0,0-4.31,4.31V164a4.32,4.32,0,0,0,4.31,4.31h57.59a4.33,4.33,0,0,1,4.32,4.32v8.85A4.33,4.33,0,0,1,311.56,185.77Z"/><path class="cls-2" d="M37.05,218.48h204.6A4.34,4.34,0,0,1,246,222.8v11a4.34,4.34,0,0,1-4.32,4.32H127.89a4.33,4.33,0,0,0-4.32,4.31v150.8a4.33,4.33,0,0,1-4.31,4.32h-11a4.33,4.33,0,0,1-4.32-4.32V242.44a4.32,4.32,0,0,0-4.31-4.31H37.27A4.33,4.33,0,0,1,33,233.81v-11S33,218.48,37.05,218.48Z"/><path class="cls-2" d="M168.54,383.67l-5,10a5.51,5.51,0,0,1-5.18,4.32h-7.77a37.34,37.34,0,0,1-6-.43c-.86-.22-1.3-2.38-.86-4.75l30.43-139.14a5.51,5.51,0,0,1,5.18-4.31h13.16a5.51,5.51,0,0,1,5.18,4.31l30.22,140a3.46,3.46,0,0,1-3.45,4.32H213a5.53,5.53,0,0,1-5.19-4.32l-5-10a5.51,5.51,0,0,0-5.18-4.32H173.72A5.51,5.51,0,0,0,168.54,383.67Zm17.91-87.07c-.43-2.37-1.3-2.37-1.73,0l-10.36,59a3.46,3.46,0,0,0,3.46,4.31h15.53a3.46,3.46,0,0,0,3.46-4.31l-10.15-59Z"/><path class="cls-2" d="M271.42,397.56H256.09a4.33,4.33,0,0,1-4.31-4.32V240.14a4.33,4.33,0,0,1,4.31-4.32h11a4.33,4.33,0,0,1,4.32,4.32V373.39a4.33,4.33,0,0,0,4.31,4.32H378.25a4.33,4.33,0,0,1,4.32,4.31v11a4.33,4.33,0,0,1-4.32,4.31H271.42Z"/><path class="cls-2" d="M377.53,250.54H364.8a7,7,0,0,0-6.05,3.88l-19,43.38c-.46,1.15-1.1,1.67-1.73,1.6s-1.27-.45-1.72-1.6l-19-43.38a7,7,0,0,0-6-3.88H298.54c-2.38,0-3.46,1.72-2.59,3.88l29.78,67.77c.86,2.16,1.73,3.89,1.73,3.89v36.2a4.33,4.33,0,0,0,4.31,4.32h12.52a4.33,4.33,0,0,0,4.32-4.32v-36.2s.86-1.73,1.73-3.89l29.78-67.77C381,252.26,379.9,250.54,377.53,250.54Z"/><path class="cls-3" d="M373.36,42.39S320.16,50,329.58,86.17C365.8,95.59,373.36,42.39,373.36,42.39Z"/><path class="cls-3" d="M0,308s53.2-7.56,43.78-43.77C7.57,254.76,0,308,0,308Z"/><path class="cls-3" d="M54.24,355.94s32.27-43,0-61.92C22,313,54.24,355.94,54.24,355.94Z"/><path class="cls-3" d="M422.46,116s-31.84-46.32-61.39-20.65C369.1,133.63,422.46,116,422.46,116Z"/><path class="cls-1" d="M416.78,480.5a18.07,18.07,0,1,1,18.07-18.07A18.1,18.1,0,0,1,416.78,480.5Zm0-34.54a16.47,16.47,0,1,0,16.47,16.47A16.48,16.48,0,0,0,416.78,446Z"/><path class="cls-1" d="M412.44,453.44a22.5,22.5,0,0,1,4-.33c2.24,0,3.69.41,4.7,1.32a4,4,0,0,1,1.28,3.08,4.25,4.25,0,0,1-3.06,4.14v.08c1.25.43,2,1.59,2.38,3.27a27,27,0,0,0,1.25,4.46h-2.16a20.81,20.81,0,0,1-1.09-3.88c-.48-2.24-1.34-3.08-3.25-3.16h-2v7h-2.1Zm2.1,7.4h2.14c2.24,0,3.66-1.23,3.66-3.09,0-2.09-1.51-3-3.73-3a9,9,0,0,0-2.07.19Z"/></g></g></svg>